M48
;GenerationSoftware,Autodesk,EAGLE,9.7.0*%
;CreationDate,2022-02-21T18:02:10Z*%
FMAT,2
ICI,OFF
METRIC,TZ,0000.0000
T3C1.0000
T2C1.1051
T1C3.2000
%
G90
M71
T1
X10000Y240000
X730000Y500000
X240000Y730000
X500000Y10000
T2
X408147Y440315
X382747Y440315
X357347Y440315
X331947Y440315
X306547Y440315
X281147Y440315
X255747Y440315
X230347Y440315
X204947Y440315
X179547Y440315
X154147Y440315
X128747Y440315
X408147Y287915
X382747Y287915
X357347Y287915
X331947Y287915
X306547Y287915
X281147Y287915
X255747Y287915
X230347Y287915
X204947Y287915
X179547Y287915
X154147Y287915
X128747Y287915
X422753Y229448
X397353Y229448
X371953Y229448
X346553Y229448
X321153Y229448
X295753Y229448
X270353Y229448
X244953Y229448
X422753Y102448
X397353Y102448
X371953Y102448
X346553Y102448
X321153Y102448
X295753Y102448
X270353Y102448
X244953Y102448
X422753Y204048
X422753Y178648
X514315Y454171
X514315Y428771
X514315Y403371
X514315Y377971
X514315Y352571
X514315Y327171
X514315Y301771
X514315Y276371
X641315Y454171
X641315Y428771
X641315Y403371
X641315Y377971
X641315Y352571
X641315Y327171
X641315Y301771
X641315Y276371
X539715Y454171
X565115Y454171
X232962Y506655
X258362Y506655
X283762Y506655
X309162Y506655
X334562Y506655
X359962Y506655
X385362Y506655
X410762Y506655
X232962Y633655
X258362Y633655
X283762Y633655
X309162Y633655
X334562Y633655
X359962Y633655
X385362Y633655
X410762Y633655
X232962Y532055
X232962Y557455
T3
X420000Y55000
X395000Y55000
X370000Y55000
X345000Y55000
X320000Y55000
X685000Y420000
X685000Y395000
X685000Y370000
X685000Y345000
X685000Y320000
X320000Y685000
X345000Y685000
X370000Y685000
X395000Y685000
X420000Y685000
X10000Y460000
X36500Y433000
X36500Y481000
M30