G04 EAGLE Gerber RS-274X export*
G75*
%MOMM*%
%FSLAX44Y44*%
%LPD*%
%INTop Copper*%
%IPPOS*%
%AMOC8*
5,1,8,0,0,1.08239X$1,22.5*%
G01*
G04 Define Apertures*
%ADD10C,1.705100*%
%ADD11R,1.508000X1.508000*%
%ADD12C,1.508000*%
D10*
X408147Y440315D03*
X382747Y440315D03*
X357347Y440315D03*
X331947Y440315D03*
X306547Y440315D03*
X281147Y440315D03*
X255747Y440315D03*
X230347Y440315D03*
X204947Y440315D03*
X179547Y440315D03*
X154147Y440315D03*
X128747Y440315D03*
X408147Y287915D03*
X382747Y287915D03*
X357347Y287915D03*
X331947Y287915D03*
X306547Y287915D03*
X281147Y287915D03*
X255747Y287915D03*
X230347Y287915D03*
X204947Y287915D03*
X179547Y287915D03*
X154147Y287915D03*
X128747Y287915D03*
X422753Y229448D03*
X397353Y229448D03*
X371953Y229448D03*
X346553Y229448D03*
X321153Y229448D03*
X295753Y229448D03*
X270353Y229448D03*
X244953Y229448D03*
X422753Y102448D03*
X397353Y102448D03*
X371953Y102448D03*
X346553Y102448D03*
X321153Y102448D03*
X295753Y102448D03*
X270353Y102448D03*
X244953Y102448D03*
X422753Y204048D03*
X422753Y178648D03*
X514315Y454171D03*
X514315Y428771D03*
X514315Y403371D03*
X514315Y377971D03*
X514315Y352571D03*
X514315Y327171D03*
X514315Y301771D03*
X514315Y276371D03*
X641315Y454171D03*
X641315Y428771D03*
X641315Y403371D03*
X641315Y377971D03*
X641315Y352571D03*
X641315Y327171D03*
X641315Y301771D03*
X641315Y276371D03*
X539715Y454171D03*
X565115Y454171D03*
X232962Y506655D03*
X258362Y506655D03*
X283762Y506655D03*
X309162Y506655D03*
X334562Y506655D03*
X359962Y506655D03*
X385362Y506655D03*
X410762Y506655D03*
X232962Y633655D03*
X258362Y633655D03*
X283762Y633655D03*
X309162Y633655D03*
X334562Y633655D03*
X359962Y633655D03*
X385362Y633655D03*
X410762Y633655D03*
X232962Y532055D03*
X232962Y557455D03*
D11*
X420000Y55000D03*
X395000Y55000D03*
X370000Y55000D03*
X345000Y55000D03*
X320000Y55000D03*
X685000Y420000D03*
X685000Y395000D03*
X685000Y370000D03*
X685000Y345000D03*
X685000Y320000D03*
X320000Y685000D03*
X345000Y685000D03*
X370000Y685000D03*
X395000Y685000D03*
X420000Y685000D03*
D12*
X10000Y467540D02*
X10000Y452460D01*
X28960Y433000D02*
X44040Y433000D01*
X44040Y481000D02*
X28960Y481000D01*
M02*
