G04 EAGLE Gerber RS-274X export*
G75*
%MOMM*%
%FSLAX44Y44*%
%LPD*%
%INBottom Copper*%
%IPPOS*%
%AMOC8*
5,1,8,0,0,1.08239X$1,22.5*%
G01*
G04 Define Apertures*
%ADD10C,1.705100*%
%ADD11R,1.508000X1.508000*%
%ADD12C,1.508000*%
%ADD13C,0.300000*%
%ADD14C,0.200000*%
%ADD15C,0.600000*%
G36*
X411325Y-762D02*
X412276Y-121D01*
X447674Y35276D01*
X448333Y36272D01*
X448553Y37398D01*
X448553Y90448D01*
X448315Y91618D01*
X447640Y92602D01*
X446634Y93246D01*
X445553Y93448D01*
X435537Y93448D01*
X434367Y93210D01*
X433416Y92569D01*
X430981Y90133D01*
X425642Y87922D01*
X419863Y87922D01*
X414524Y90133D01*
X410325Y94333D01*
X409830Y95067D01*
X408829Y95719D01*
X407654Y95928D01*
X406490Y95663D01*
X405604Y95050D01*
X403621Y93067D01*
X399554Y91382D01*
X398115Y91382D01*
X398115Y113513D01*
X399554Y113513D01*
X403621Y111828D01*
X405604Y109845D01*
X406600Y109185D01*
X407774Y108966D01*
X408940Y109223D01*
X409914Y109913D01*
X410346Y110583D01*
X414524Y114762D01*
X416550Y115600D01*
X417523Y116251D01*
X548902Y247630D01*
X552210Y249000D01*
X733840Y249000D01*
X735010Y249238D01*
X735995Y249913D01*
X736638Y250919D01*
X736840Y252000D01*
X736840Y434315D01*
X736602Y435485D01*
X735961Y436436D01*
X662276Y510121D01*
X661281Y510781D01*
X660155Y511000D01*
X653315Y511000D01*
X652144Y510762D01*
X651160Y510087D01*
X650516Y509081D01*
X650315Y508000D01*
X650315Y466955D01*
X650552Y465785D01*
X651193Y464834D01*
X653629Y462399D01*
X655840Y457060D01*
X655840Y451281D01*
X653629Y445942D01*
X649429Y441743D01*
X648695Y441248D01*
X648043Y440247D01*
X647834Y439072D01*
X648099Y437908D01*
X648712Y437022D01*
X650695Y435039D01*
X652380Y430972D01*
X652380Y429533D01*
X630249Y429533D01*
X630249Y430972D01*
X631934Y435039D01*
X633917Y437022D01*
X634577Y438018D01*
X634796Y439192D01*
X634539Y440358D01*
X633849Y441332D01*
X633179Y441764D01*
X629000Y445942D01*
X626789Y451281D01*
X626789Y457060D01*
X629000Y462399D01*
X631436Y464834D01*
X632095Y465829D01*
X632315Y466955D01*
X632315Y508000D01*
X632077Y509170D01*
X631402Y510155D01*
X630396Y510798D01*
X629315Y511000D01*
X508210Y511000D01*
X504902Y512370D01*
X502370Y514902D01*
X501000Y518210D01*
X501000Y715000D01*
X500762Y716170D01*
X500087Y717155D01*
X499081Y717798D01*
X498000Y718000D01*
X283209Y718000D01*
X282039Y717762D01*
X281088Y717121D01*
X242841Y678874D01*
X242181Y677879D01*
X241962Y676753D01*
X241962Y646440D01*
X242200Y645270D01*
X242841Y644318D01*
X245390Y641770D01*
X245885Y641035D01*
X246885Y640384D01*
X248061Y640174D01*
X249225Y640440D01*
X250110Y641052D01*
X252094Y643036D01*
X256161Y644720D01*
X257600Y644720D01*
X257600Y622589D01*
X256161Y622589D01*
X252094Y624274D01*
X250110Y626258D01*
X249115Y626917D01*
X247941Y627136D01*
X246775Y626880D01*
X245801Y626189D01*
X245369Y625519D01*
X241190Y621341D01*
X235851Y619129D01*
X230073Y619129D01*
X224734Y621341D01*
X220648Y625427D01*
X218437Y630765D01*
X218437Y636544D01*
X220648Y641883D01*
X223083Y644318D01*
X223743Y645314D01*
X223962Y646440D01*
X223962Y683514D01*
X225332Y686822D01*
X237452Y698941D01*
X238111Y699937D01*
X238330Y701110D01*
X238074Y702277D01*
X237383Y703250D01*
X236107Y703960D01*
X229903Y705623D01*
X223937Y709067D01*
X219067Y713937D01*
X216758Y717936D01*
X215967Y718831D01*
X214890Y719346D01*
X213697Y719400D01*
X212578Y718985D01*
X211709Y718166D01*
X211228Y717073D01*
X211160Y716436D01*
X211160Y555065D01*
X208110Y545677D01*
X202308Y537692D01*
X194323Y531890D01*
X184935Y528840D01*
X-10000Y528840D01*
X-10776Y528738D01*
X-13696Y527955D01*
X-15041Y527179D01*
X-17179Y525041D01*
X-17955Y523696D01*
X-18738Y520776D01*
X-18840Y520000D01*
X-18840Y253564D01*
X-18602Y252394D01*
X-17927Y251409D01*
X-16921Y250766D01*
X-15744Y250565D01*
X-14582Y250840D01*
X-13620Y251546D01*
X-13242Y252064D01*
X-10933Y256063D01*
X-6063Y260933D01*
X-97Y264377D01*
X6556Y266160D01*
X13444Y266160D01*
X20097Y264377D01*
X23000Y262701D01*
X24132Y262322D01*
X25323Y262414D01*
X26383Y262964D01*
X27145Y263883D01*
X27500Y265300D01*
X27500Y416945D01*
X27262Y418115D01*
X26587Y419100D01*
X25648Y419716D01*
X21290Y421521D01*
X17481Y425330D01*
X15420Y430307D01*
X15420Y435693D01*
X16699Y438781D01*
X16927Y439953D01*
X16680Y441121D01*
X15997Y442101D01*
X14986Y442736D01*
X13808Y442927D01*
X12779Y442701D01*
X12005Y442380D01*
X10762Y442380D01*
X10762Y459238D01*
X20080Y459238D01*
X20080Y450455D01*
X19613Y449327D01*
X19385Y448155D01*
X19631Y446987D01*
X20314Y446008D01*
X21325Y445372D01*
X22504Y445181D01*
X23533Y445407D01*
X26267Y446540D01*
X46733Y446540D01*
X51710Y444479D01*
X54810Y441379D01*
X55805Y440719D01*
X56931Y440500D01*
X60492Y440500D01*
X63248Y439358D01*
X84228Y418379D01*
X85223Y417719D01*
X86349Y417500D01*
X349500Y417500D01*
X350670Y417738D01*
X351655Y418413D01*
X352298Y419419D01*
X352500Y420500D01*
X352500Y424595D01*
X352262Y425765D01*
X351587Y426750D01*
X350648Y427367D01*
X349119Y428000D01*
X346768Y430351D01*
X345773Y431010D01*
X344599Y431229D01*
X343433Y430973D01*
X342526Y430351D01*
X340175Y428000D01*
X334836Y425789D01*
X329058Y425789D01*
X323719Y428000D01*
X321368Y430351D01*
X320373Y431010D01*
X319199Y431229D01*
X318033Y430973D01*
X317126Y430351D01*
X314775Y428000D01*
X309436Y425789D01*
X303658Y425789D01*
X298319Y428000D01*
X295968Y430351D01*
X294973Y431010D01*
X293799Y431229D01*
X292633Y430973D01*
X291726Y430351D01*
X289375Y428000D01*
X284036Y425789D01*
X278258Y425789D01*
X272919Y428000D01*
X270568Y430351D01*
X269573Y431010D01*
X268399Y431229D01*
X267233Y430973D01*
X266326Y430351D01*
X263975Y428000D01*
X258636Y425789D01*
X252858Y425789D01*
X247519Y428000D01*
X245168Y430351D01*
X244173Y431010D01*
X242999Y431229D01*
X241833Y430973D01*
X240926Y430351D01*
X238575Y428000D01*
X233236Y425789D01*
X227458Y425789D01*
X222119Y428000D01*
X219768Y430351D01*
X218773Y431010D01*
X217599Y431229D01*
X216433Y430973D01*
X215526Y430351D01*
X213175Y428000D01*
X207836Y425789D01*
X202058Y425789D01*
X196719Y428000D01*
X194368Y430351D01*
X193373Y431010D01*
X192199Y431229D01*
X191033Y430973D01*
X190126Y430351D01*
X187775Y428000D01*
X182436Y425789D01*
X176658Y425789D01*
X171319Y428000D01*
X168968Y430351D01*
X167973Y431010D01*
X166799Y431229D01*
X165633Y430973D01*
X164726Y430351D01*
X162375Y428000D01*
X157036Y425789D01*
X151258Y425789D01*
X145919Y428000D01*
X143568Y430351D01*
X142573Y431010D01*
X141399Y431229D01*
X140233Y430973D01*
X139326Y430351D01*
X136975Y428000D01*
X131636Y425789D01*
X125858Y425789D01*
X120519Y428000D01*
X116433Y432086D01*
X114222Y437425D01*
X114222Y443204D01*
X116433Y448543D01*
X120519Y452629D01*
X125858Y454840D01*
X131636Y454840D01*
X136975Y452629D01*
X139326Y450278D01*
X140321Y449619D01*
X141495Y449400D01*
X142661Y449656D01*
X143568Y450278D01*
X145919Y452629D01*
X151258Y454840D01*
X157036Y454840D01*
X162375Y452629D01*
X164726Y450278D01*
X165721Y449619D01*
X166895Y449400D01*
X168061Y449656D01*
X168968Y450278D01*
X171319Y452629D01*
X176658Y454840D01*
X182436Y454840D01*
X187775Y452629D01*
X190126Y450278D01*
X191121Y449619D01*
X192295Y449400D01*
X193461Y449656D01*
X194368Y450278D01*
X197068Y452978D01*
X197728Y453973D01*
X197947Y455099D01*
X197947Y456339D01*
X199013Y458912D01*
X225083Y484983D01*
X225743Y485978D01*
X225962Y487104D01*
X225962Y491870D01*
X225724Y493040D01*
X225083Y493991D01*
X220648Y498427D01*
X218437Y503765D01*
X218437Y509544D01*
X220648Y514883D01*
X222999Y517234D01*
X223658Y518229D01*
X223877Y519403D01*
X223621Y520569D01*
X222999Y521476D01*
X220648Y523827D01*
X218437Y529165D01*
X218437Y534944D01*
X220648Y540283D01*
X222999Y542634D01*
X223658Y543629D01*
X223877Y544803D01*
X223621Y545969D01*
X222999Y546876D01*
X220648Y549227D01*
X218437Y554565D01*
X218437Y560344D01*
X220648Y565683D01*
X224734Y569769D01*
X230073Y571980D01*
X235851Y571980D01*
X241190Y569769D01*
X245276Y565683D01*
X247488Y560344D01*
X247488Y554565D01*
X245276Y549227D01*
X242926Y546876D01*
X242266Y545881D01*
X242047Y544707D01*
X242303Y543541D01*
X242926Y542634D01*
X245276Y540283D01*
X247488Y534944D01*
X247488Y529165D01*
X245276Y523827D01*
X242926Y521476D01*
X242266Y520481D01*
X242047Y519307D01*
X242303Y518141D01*
X242926Y517234D01*
X243541Y516618D01*
X244536Y515959D01*
X245710Y515740D01*
X246876Y515996D01*
X247783Y516618D01*
X250134Y518969D01*
X255473Y521180D01*
X261251Y521180D01*
X266590Y518969D01*
X268941Y516618D01*
X269936Y515959D01*
X271110Y515740D01*
X272276Y515996D01*
X273183Y516618D01*
X275534Y518969D01*
X280873Y521180D01*
X286651Y521180D01*
X291990Y518969D01*
X294341Y516618D01*
X295336Y515959D01*
X296510Y515740D01*
X297676Y515996D01*
X298583Y516618D01*
X300934Y518969D01*
X306273Y521180D01*
X312051Y521180D01*
X317390Y518969D01*
X319741Y516618D01*
X320736Y515959D01*
X321910Y515740D01*
X323076Y515996D01*
X323983Y516618D01*
X326334Y518969D01*
X331673Y521180D01*
X337451Y521180D01*
X342790Y518969D01*
X345141Y516618D01*
X346136Y515959D01*
X347310Y515740D01*
X348476Y515996D01*
X349383Y516618D01*
X351734Y518969D01*
X357073Y521180D01*
X362851Y521180D01*
X368190Y518969D01*
X370541Y516618D01*
X371536Y515959D01*
X372710Y515740D01*
X373876Y515996D01*
X374783Y516618D01*
X377134Y518969D01*
X382473Y521180D01*
X388251Y521180D01*
X393590Y518969D01*
X395941Y516618D01*
X396936Y515959D01*
X398110Y515740D01*
X399276Y515996D01*
X400183Y516618D01*
X402534Y518969D01*
X407873Y521180D01*
X413651Y521180D01*
X418990Y518969D01*
X423076Y514883D01*
X424638Y511111D01*
X425306Y510121D01*
X426306Y509470D01*
X427482Y509260D01*
X428646Y509526D01*
X429531Y510138D01*
X431621Y512228D01*
X432281Y513223D01*
X432500Y514349D01*
X432500Y559500D01*
X432262Y560670D01*
X431587Y561655D01*
X430581Y562298D01*
X429500Y562500D01*
X417525Y562500D01*
X414768Y563642D01*
X379004Y599406D01*
X377862Y602163D01*
X377862Y619370D01*
X377624Y620540D01*
X376983Y621491D01*
X374783Y623691D01*
X373788Y624351D01*
X372614Y624570D01*
X371448Y624313D01*
X370541Y623691D01*
X368190Y621341D01*
X362851Y619129D01*
X357073Y619129D01*
X351734Y621341D01*
X349383Y623691D01*
X348388Y624351D01*
X347214Y624570D01*
X346048Y624313D01*
X345141Y623691D01*
X342790Y621341D01*
X337451Y619129D01*
X331673Y619129D01*
X326334Y621341D01*
X323983Y623691D01*
X322988Y624351D01*
X321814Y624570D01*
X320648Y624313D01*
X319741Y623691D01*
X317390Y621341D01*
X312051Y619129D01*
X306273Y619129D01*
X300934Y621341D01*
X298583Y623691D01*
X297588Y624351D01*
X296414Y624570D01*
X295248Y624313D01*
X294341Y623691D01*
X291990Y621341D01*
X286651Y619129D01*
X280873Y619129D01*
X275534Y621341D01*
X271335Y625540D01*
X270840Y626275D01*
X269839Y626926D01*
X268663Y627136D01*
X267499Y626870D01*
X266614Y626258D01*
X264630Y624274D01*
X260563Y622589D01*
X259124Y622589D01*
X259124Y644720D01*
X260563Y644720D01*
X264630Y643036D01*
X266614Y641052D01*
X267609Y640393D01*
X268783Y640174D01*
X269949Y640430D01*
X270923Y641121D01*
X271355Y641790D01*
X275534Y645969D01*
X280873Y648180D01*
X286438Y648180D01*
X287608Y648418D01*
X288560Y649059D01*
X308346Y668846D01*
X309006Y669841D01*
X309225Y671015D01*
X308968Y672181D01*
X308346Y673088D01*
X307373Y674061D01*
X306460Y676267D01*
X306460Y693733D01*
X307373Y695939D01*
X309061Y697627D01*
X311267Y698540D01*
X328734Y698540D01*
X331352Y697455D01*
X332524Y697227D01*
X333648Y697455D01*
X336267Y698540D01*
X350087Y698540D01*
X351257Y698778D01*
X352209Y699419D01*
X356959Y704169D01*
X359716Y705311D01*
X388746Y705311D01*
X391503Y704169D01*
X396254Y699419D01*
X397249Y698759D01*
X398375Y698540D01*
X403734Y698540D01*
X406352Y697455D01*
X407524Y697227D01*
X408648Y697455D01*
X411267Y698540D01*
X428733Y698540D01*
X430939Y697627D01*
X432627Y695939D01*
X433540Y693733D01*
X433540Y676267D01*
X432627Y674061D01*
X430939Y672373D01*
X429352Y671716D01*
X428362Y671049D01*
X427710Y670048D01*
X427500Y668945D01*
X427500Y668508D01*
X426358Y665752D01*
X410448Y649842D01*
X409789Y648846D01*
X409570Y647673D01*
X409826Y646506D01*
X410517Y645532D01*
X411533Y644905D01*
X412570Y644720D01*
X412963Y644720D01*
X417030Y643036D01*
X420143Y639923D01*
X421828Y635856D01*
X421828Y634417D01*
X410000Y634417D01*
X410000Y622589D01*
X408561Y622589D01*
X404494Y624274D01*
X402510Y626258D01*
X401515Y626917D01*
X400341Y627136D01*
X399175Y626880D01*
X398201Y626189D01*
X397769Y625519D01*
X393741Y621491D01*
X393081Y620496D01*
X392862Y619370D01*
X392862Y608004D01*
X393100Y606834D01*
X393741Y605883D01*
X421245Y578379D01*
X422240Y577719D01*
X423366Y577500D01*
X441492Y577500D01*
X444248Y576358D01*
X446358Y574248D01*
X447500Y571492D01*
X447500Y508508D01*
X446358Y505752D01*
X433228Y492621D01*
X432569Y491626D01*
X432350Y490452D01*
X432606Y489286D01*
X433297Y488312D01*
X434313Y487685D01*
X435349Y487500D01*
X571492Y487500D01*
X574248Y486358D01*
X606358Y454248D01*
X607500Y451492D01*
X607500Y311321D01*
X607738Y310151D01*
X608413Y309166D01*
X609419Y308523D01*
X610500Y308321D01*
X626301Y308321D01*
X627471Y308559D01*
X628456Y309234D01*
X628877Y309875D01*
X631351Y312349D01*
X632010Y313345D01*
X632229Y314518D01*
X631973Y315685D01*
X631351Y316592D01*
X629000Y318942D01*
X626789Y324281D01*
X626789Y330060D01*
X629000Y335399D01*
X631351Y337749D01*
X632010Y338745D01*
X632229Y339918D01*
X631973Y341085D01*
X631351Y341992D01*
X629000Y344342D01*
X626789Y349681D01*
X626789Y355460D01*
X629000Y360799D01*
X631351Y363149D01*
X632010Y364145D01*
X632229Y365318D01*
X631973Y366485D01*
X631351Y367392D01*
X629000Y369742D01*
X626789Y375081D01*
X626789Y380860D01*
X629000Y386199D01*
X631351Y388549D01*
X632010Y389545D01*
X632229Y390718D01*
X631973Y391885D01*
X631351Y392792D01*
X629000Y395142D01*
X626789Y400481D01*
X626789Y406260D01*
X629000Y411599D01*
X633200Y415798D01*
X633934Y416293D01*
X634586Y417294D01*
X634795Y418469D01*
X634530Y419633D01*
X633917Y420519D01*
X631934Y422502D01*
X630249Y426569D01*
X630249Y428009D01*
X652380Y428009D01*
X652380Y426569D01*
X650695Y422502D01*
X648712Y420519D01*
X648052Y419523D01*
X647833Y418350D01*
X648090Y417183D01*
X648780Y416209D01*
X649450Y415777D01*
X653629Y411599D01*
X655840Y406260D01*
X655840Y405500D01*
X656078Y404330D01*
X656753Y403345D01*
X657759Y402702D01*
X658840Y402500D01*
X668945Y402500D01*
X670115Y402738D01*
X671099Y403413D01*
X671716Y404352D01*
X672545Y406352D01*
X672773Y407524D01*
X672545Y408648D01*
X671460Y411267D01*
X671460Y428733D01*
X672373Y430939D01*
X674061Y432627D01*
X676267Y433540D01*
X693733Y433540D01*
X695939Y432627D01*
X697627Y430939D01*
X698540Y428733D01*
X698540Y411267D01*
X697455Y408648D01*
X697227Y407476D01*
X697455Y406352D01*
X698540Y403734D01*
X698540Y393064D01*
X698778Y391894D01*
X699453Y390909D01*
X700459Y390266D01*
X701075Y390151D01*
X704041Y388922D01*
X712358Y380605D01*
X713500Y377848D01*
X713500Y358256D01*
X713531Y357825D01*
X713637Y357099D01*
X713592Y356924D01*
X713500Y356186D01*
X713500Y356006D01*
X713219Y355328D01*
X713083Y354918D01*
X712903Y354207D01*
X712795Y354062D01*
X712427Y353416D01*
X712358Y353249D01*
X711839Y352730D01*
X711557Y352404D01*
X711118Y351816D01*
X710963Y351724D01*
X710376Y351267D01*
X710248Y351140D01*
X709570Y350859D01*
X709184Y350665D01*
X700006Y345203D01*
X699122Y344400D01*
X698621Y343316D01*
X698540Y342625D01*
X698540Y336267D01*
X697455Y333648D01*
X697227Y332476D01*
X697455Y331352D01*
X698540Y328734D01*
X698540Y311267D01*
X697627Y309061D01*
X695939Y307373D01*
X693733Y306460D01*
X676267Y306460D01*
X674061Y307373D01*
X672373Y309061D01*
X671716Y310648D01*
X671049Y311638D01*
X670048Y312290D01*
X668945Y312500D01*
X668508Y312500D01*
X665752Y313642D01*
X660602Y318792D01*
X659606Y319451D01*
X658480Y319671D01*
X655599Y319671D01*
X654429Y319433D01*
X653478Y318792D01*
X651278Y316592D01*
X650619Y315596D01*
X650400Y314423D01*
X650656Y313257D01*
X651278Y312349D01*
X653629Y309999D01*
X655840Y304660D01*
X655840Y298881D01*
X653629Y293542D01*
X649429Y289343D01*
X648695Y288848D01*
X648043Y287847D01*
X647834Y286672D01*
X648099Y285508D01*
X648712Y284622D01*
X650695Y282639D01*
X652380Y278572D01*
X652380Y277133D01*
X630249Y277133D01*
X630249Y278572D01*
X631934Y282639D01*
X633917Y284622D01*
X634577Y285618D01*
X634796Y286792D01*
X634539Y287958D01*
X633849Y288932D01*
X633179Y289364D01*
X630101Y292442D01*
X629105Y293102D01*
X627979Y293321D01*
X598508Y293321D01*
X595752Y294463D01*
X593642Y296573D01*
X592500Y299329D01*
X592500Y304651D01*
X592262Y305821D01*
X591587Y306806D01*
X590581Y307449D01*
X589404Y307649D01*
X588242Y307374D01*
X587379Y306772D01*
X424248Y143642D01*
X421492Y142500D01*
X280500Y142500D01*
X279330Y142262D01*
X278345Y141587D01*
X277702Y140581D01*
X277500Y139500D01*
X277500Y117085D01*
X277738Y115915D01*
X278379Y114964D01*
X280931Y112411D01*
X281927Y111752D01*
X283100Y111533D01*
X284267Y111789D01*
X285174Y112411D01*
X287524Y114762D01*
X292863Y116973D01*
X298642Y116973D01*
X303981Y114762D01*
X306331Y112411D01*
X307327Y111752D01*
X308500Y111533D01*
X309667Y111789D01*
X310574Y112411D01*
X312924Y114762D01*
X318263Y116973D01*
X324042Y116973D01*
X329381Y114762D01*
X331731Y112411D01*
X332727Y111752D01*
X333900Y111533D01*
X335067Y111789D01*
X335974Y112411D01*
X338324Y114762D01*
X343663Y116973D01*
X349442Y116973D01*
X354781Y114762D01*
X357131Y112411D01*
X358127Y111752D01*
X359300Y111533D01*
X360467Y111789D01*
X361374Y112411D01*
X363724Y114762D01*
X369063Y116973D01*
X374842Y116973D01*
X380181Y114762D01*
X384380Y110562D01*
X384875Y109828D01*
X385876Y109176D01*
X387051Y108967D01*
X388215Y109232D01*
X389101Y109845D01*
X391084Y111828D01*
X395151Y113513D01*
X396591Y113513D01*
X396591Y91382D01*
X395151Y91382D01*
X391084Y93067D01*
X389101Y95050D01*
X388105Y95710D01*
X386932Y95929D01*
X385765Y95672D01*
X384791Y94982D01*
X384359Y94312D01*
X381139Y91092D01*
X380480Y90096D01*
X380261Y88923D01*
X380517Y87756D01*
X380835Y87205D01*
X393522Y69775D01*
X394403Y68968D01*
X395948Y68540D01*
X403734Y68540D01*
X406352Y67455D01*
X407524Y67227D01*
X408648Y67455D01*
X411267Y68540D01*
X428733Y68540D01*
X430939Y67627D01*
X432627Y65939D01*
X433540Y63733D01*
X433540Y46267D01*
X432627Y44061D01*
X430939Y42373D01*
X428733Y41460D01*
X411267Y41460D01*
X408648Y42545D01*
X407476Y42773D01*
X406352Y42545D01*
X403734Y41460D01*
X386267Y41460D01*
X383648Y42545D01*
X382476Y42773D01*
X381352Y42545D01*
X379352Y41716D01*
X378362Y41049D01*
X377710Y40048D01*
X377500Y38945D01*
X377500Y28508D01*
X376358Y25752D01*
X374248Y23642D01*
X371492Y22500D01*
X331508Y22500D01*
X328752Y23642D01*
X326642Y25752D01*
X325500Y28508D01*
X325500Y38460D01*
X325262Y39630D01*
X324587Y40615D01*
X323581Y41258D01*
X322500Y41460D01*
X311267Y41460D01*
X309061Y42373D01*
X307373Y44061D01*
X306460Y46267D01*
X306460Y63733D01*
X307373Y65939D01*
X308041Y66606D01*
X308700Y67602D01*
X308919Y68776D01*
X308663Y69942D01*
X308282Y70577D01*
X295605Y86771D01*
X294697Y87546D01*
X293243Y87922D01*
X292863Y87922D01*
X287524Y90133D01*
X285174Y92484D01*
X284178Y93143D01*
X283005Y93362D01*
X281839Y93106D01*
X280931Y92484D01*
X278581Y90133D01*
X273242Y87922D01*
X267463Y87922D01*
X262124Y90133D01*
X257925Y94333D01*
X257430Y95067D01*
X256429Y95719D01*
X255254Y95928D01*
X254090Y95663D01*
X253204Y95050D01*
X251221Y93067D01*
X247154Y91382D01*
X245715Y91382D01*
X245715Y113513D01*
X247154Y113513D01*
X251221Y111828D01*
X253204Y109845D01*
X254200Y109185D01*
X255374Y108966D01*
X256540Y109223D01*
X257514Y109913D01*
X257946Y110583D01*
X261621Y114259D01*
X262281Y115254D01*
X262500Y116380D01*
X262500Y151492D01*
X263642Y154248D01*
X265752Y156358D01*
X268508Y157500D01*
X415651Y157500D01*
X416821Y157738D01*
X417772Y158379D01*
X419271Y159878D01*
X419930Y160873D01*
X420149Y162047D01*
X419893Y163213D01*
X419202Y164187D01*
X418298Y164771D01*
X414524Y166333D01*
X410438Y170419D01*
X408227Y175758D01*
X408227Y181537D01*
X410438Y186876D01*
X412789Y189226D01*
X413448Y190222D01*
X413667Y191395D01*
X413411Y192562D01*
X412789Y193469D01*
X410438Y195819D01*
X408227Y201158D01*
X408227Y206937D01*
X410438Y212276D01*
X412789Y214626D01*
X413448Y215622D01*
X413667Y216795D01*
X413411Y217962D01*
X412789Y218869D01*
X412174Y219484D01*
X411178Y220143D01*
X410005Y220362D01*
X408839Y220106D01*
X407931Y219484D01*
X405581Y217133D01*
X400242Y214922D01*
X394463Y214922D01*
X389124Y217133D01*
X386774Y219484D01*
X385778Y220143D01*
X384605Y220362D01*
X383439Y220106D01*
X382531Y219484D01*
X380181Y217133D01*
X374842Y214922D01*
X369063Y214922D01*
X363724Y217133D01*
X361374Y219484D01*
X360378Y220143D01*
X359205Y220362D01*
X358039Y220106D01*
X357131Y219484D01*
X354781Y217133D01*
X349442Y214922D01*
X343663Y214922D01*
X338324Y217133D01*
X335974Y219484D01*
X334978Y220143D01*
X333805Y220362D01*
X332639Y220106D01*
X331731Y219484D01*
X329381Y217133D01*
X324042Y214922D01*
X318263Y214922D01*
X312924Y217133D01*
X310574Y219484D01*
X309578Y220143D01*
X308405Y220362D01*
X307239Y220106D01*
X306331Y219484D01*
X303981Y217133D01*
X298642Y214922D01*
X292863Y214922D01*
X287524Y217133D01*
X285174Y219484D01*
X284178Y220143D01*
X283005Y220362D01*
X281839Y220106D01*
X280931Y219484D01*
X278581Y217133D01*
X273242Y214922D01*
X267463Y214922D01*
X262124Y217133D01*
X259774Y219484D01*
X258778Y220143D01*
X257605Y220362D01*
X256439Y220106D01*
X255531Y219484D01*
X253181Y217133D01*
X247842Y214922D01*
X242063Y214922D01*
X236724Y217133D01*
X232638Y221219D01*
X230427Y226558D01*
X230427Y229448D01*
X230189Y230618D01*
X229514Y231602D01*
X228508Y232246D01*
X227427Y232448D01*
X149160Y232448D01*
X146587Y233513D01*
X122813Y257288D01*
X121747Y259861D01*
X121747Y273130D01*
X121509Y274300D01*
X120868Y275251D01*
X116433Y279686D01*
X114222Y285025D01*
X114222Y290804D01*
X116433Y296143D01*
X120519Y300229D01*
X125858Y302440D01*
X131636Y302440D01*
X136975Y300229D01*
X139326Y297878D01*
X140321Y297219D01*
X141495Y297000D01*
X142661Y297256D01*
X143568Y297878D01*
X145919Y300229D01*
X151258Y302440D01*
X157036Y302440D01*
X162375Y300229D01*
X164726Y297878D01*
X165721Y297219D01*
X166895Y297000D01*
X168061Y297256D01*
X168968Y297878D01*
X171319Y300229D01*
X176658Y302440D01*
X182436Y302440D01*
X187775Y300229D01*
X190126Y297878D01*
X191121Y297219D01*
X192295Y297000D01*
X193461Y297256D01*
X194368Y297878D01*
X196719Y300229D01*
X202058Y302440D01*
X207836Y302440D01*
X213175Y300229D01*
X215526Y297878D01*
X216521Y297219D01*
X217695Y297000D01*
X218861Y297256D01*
X219768Y297878D01*
X222119Y300229D01*
X227458Y302440D01*
X233236Y302440D01*
X238575Y300229D01*
X240926Y297878D01*
X241921Y297219D01*
X243095Y297000D01*
X244261Y297256D01*
X245168Y297878D01*
X247519Y300229D01*
X252858Y302440D01*
X258636Y302440D01*
X263975Y300229D01*
X266326Y297878D01*
X267321Y297219D01*
X268495Y297000D01*
X269661Y297256D01*
X270568Y297878D01*
X272121Y299431D01*
X272781Y300426D01*
X273000Y301552D01*
X273000Y391392D01*
X274066Y393965D01*
X276035Y395934D01*
X277952Y396728D01*
X278942Y397396D01*
X279593Y398396D01*
X279803Y399572D01*
X279537Y400736D01*
X278839Y401704D01*
X277818Y402323D01*
X276804Y402500D01*
X80508Y402500D01*
X77752Y403642D01*
X57912Y423481D01*
X56917Y424141D01*
X55743Y424359D01*
X54577Y424103D01*
X53670Y423481D01*
X51710Y421521D01*
X47352Y419716D01*
X46362Y419049D01*
X45710Y418048D01*
X45500Y416945D01*
X45500Y272631D01*
X45738Y271460D01*
X46379Y270509D01*
X92849Y224039D01*
X93845Y223379D01*
X94971Y223160D01*
X207656Y223160D01*
X210963Y221790D01*
X221790Y210963D01*
X223160Y207656D01*
X223160Y2000D01*
X223398Y830D01*
X224073Y-155D01*
X225079Y-798D01*
X226160Y-1000D01*
X410155Y-1000D01*
X411325Y-762D01*
G37*
%LPC*%
G36*
X411524Y622589D02*
X411524Y632893D01*
X421828Y632893D01*
X421828Y631454D01*
X420143Y627387D01*
X417030Y624274D01*
X412963Y622589D01*
X411524Y622589D01*
G37*
G36*
X18880Y481762D02*
X18880Y483005D01*
X20415Y486710D01*
X23250Y489545D01*
X26955Y491080D01*
X35738Y491080D01*
X35738Y481762D01*
X18880Y481762D01*
G37*
G36*
X37262Y481762D02*
X37262Y491080D01*
X46045Y491080D01*
X49750Y489545D01*
X52585Y486710D01*
X54120Y483005D01*
X54120Y481762D01*
X37262Y481762D01*
G37*
G36*
X37262Y470920D02*
X37262Y480238D01*
X54120Y480238D01*
X54120Y478995D01*
X52585Y475290D01*
X49750Y472455D01*
X46045Y470920D01*
X37262Y470920D01*
G37*
G36*
X10762Y460762D02*
X10762Y477620D01*
X12005Y477620D01*
X14732Y476490D01*
X15904Y476262D01*
X17072Y476509D01*
X18051Y477192D01*
X18687Y478203D01*
X18880Y479262D01*
X18880Y480238D01*
X35738Y480238D01*
X35738Y470920D01*
X26955Y470920D01*
X24228Y472050D01*
X23056Y472278D01*
X21888Y472031D01*
X20909Y471348D01*
X20273Y470337D01*
X20080Y469278D01*
X20080Y460762D01*
X10762Y460762D01*
G37*
G36*
X-80Y460762D02*
X-80Y469545D01*
X1455Y473250D01*
X4290Y476085D01*
X7995Y477620D01*
X9238Y477620D01*
X9238Y460762D01*
X-80Y460762D01*
G37*
G36*
X7995Y442380D02*
X4290Y443915D01*
X1455Y446750D01*
X-80Y450455D01*
X-80Y459238D01*
X9238Y459238D01*
X9238Y442380D01*
X7995Y442380D01*
G37*
G36*
X642077Y265305D02*
X642077Y275609D01*
X652380Y275609D01*
X652380Y274169D01*
X650695Y270102D01*
X647583Y266990D01*
X643516Y265305D01*
X642077Y265305D01*
G37*
G36*
X639113Y265305D02*
X635046Y266990D01*
X631934Y270102D01*
X630249Y274169D01*
X630249Y275609D01*
X640553Y275609D01*
X640553Y265305D01*
X639113Y265305D01*
G37*
G36*
X233887Y103210D02*
X233887Y104649D01*
X235572Y108716D01*
X238684Y111828D01*
X242751Y113513D01*
X244191Y113513D01*
X244191Y103210D01*
X233887Y103210D01*
G37*
G36*
X242751Y91382D02*
X238684Y93067D01*
X235572Y96179D01*
X233887Y100246D01*
X233887Y101686D01*
X244191Y101686D01*
X244191Y91382D01*
X242751Y91382D01*
G37*
%LPD*%
G36*
X387028Y397238D02*
X387979Y397879D01*
X410768Y420668D01*
X411428Y421663D01*
X411647Y422837D01*
X411390Y424003D01*
X410700Y424977D01*
X409684Y425604D01*
X408647Y425789D01*
X405258Y425789D01*
X399919Y428000D01*
X395720Y432200D01*
X395225Y432934D01*
X394224Y433586D01*
X393048Y433795D01*
X391884Y433530D01*
X390999Y432917D01*
X389015Y430934D01*
X384948Y429249D01*
X383509Y429249D01*
X383509Y451380D01*
X384948Y451380D01*
X389015Y449695D01*
X390999Y447712D01*
X391994Y447052D01*
X393168Y446833D01*
X394334Y447090D01*
X395308Y447780D01*
X395740Y448450D01*
X399919Y452629D01*
X405258Y454840D01*
X411036Y454840D01*
X416375Y452629D01*
X420461Y448543D01*
X422673Y443204D01*
X422673Y439815D01*
X422910Y438645D01*
X423585Y437660D01*
X424591Y437016D01*
X425768Y436816D01*
X426930Y437091D01*
X427794Y437693D01*
X446035Y455934D01*
X448608Y457000D01*
X497760Y457000D01*
X498930Y457238D01*
X499915Y457913D01*
X500531Y458852D01*
X502000Y462399D01*
X506086Y466485D01*
X506675Y466728D01*
X507665Y467396D01*
X508316Y468396D01*
X508526Y469572D01*
X508260Y470736D01*
X507562Y471704D01*
X506541Y472323D01*
X505527Y472500D01*
X414349Y472500D01*
X413179Y472262D01*
X412228Y471621D01*
X404248Y463642D01*
X401492Y462500D01*
X340500Y462500D01*
X339330Y462262D01*
X338345Y461587D01*
X337702Y460581D01*
X337500Y459500D01*
X337500Y455741D01*
X337738Y454571D01*
X338413Y453586D01*
X339352Y452970D01*
X340175Y452629D01*
X342526Y450278D01*
X343521Y449619D01*
X344695Y449400D01*
X345861Y449656D01*
X346768Y450278D01*
X349119Y452629D01*
X354458Y454840D01*
X360236Y454840D01*
X365575Y452629D01*
X369775Y448429D01*
X370270Y447695D01*
X371270Y447043D01*
X372446Y446834D01*
X373610Y447099D01*
X374495Y447712D01*
X376479Y449695D01*
X380546Y451380D01*
X381985Y451380D01*
X381985Y429249D01*
X380546Y429249D01*
X376479Y430934D01*
X374495Y432917D01*
X373500Y433577D01*
X372326Y433796D01*
X371160Y433539D01*
X370186Y432849D01*
X369754Y432179D01*
X368379Y430804D01*
X367719Y429809D01*
X367500Y428683D01*
X367500Y408508D01*
X366358Y405752D01*
X364248Y403642D01*
X362148Y402772D01*
X361158Y402104D01*
X360506Y401104D01*
X360297Y399928D01*
X360562Y398764D01*
X361261Y397796D01*
X362281Y397177D01*
X363296Y397000D01*
X385858Y397000D01*
X387028Y397238D01*
G37*
D10*
X408147Y440315D03*
X382747Y440315D03*
X357347Y440315D03*
X331947Y440315D03*
X306547Y440315D03*
X281147Y440315D03*
X255747Y440315D03*
X230347Y440315D03*
X204947Y440315D03*
X179547Y440315D03*
X154147Y440315D03*
X128747Y440315D03*
X408147Y287915D03*
X382747Y287915D03*
X357347Y287915D03*
X331947Y287915D03*
X306547Y287915D03*
X281147Y287915D03*
X255747Y287915D03*
X230347Y287915D03*
X204947Y287915D03*
X179547Y287915D03*
X154147Y287915D03*
X128747Y287915D03*
X422753Y229448D03*
X397353Y229448D03*
X371953Y229448D03*
X346553Y229448D03*
X321153Y229448D03*
X295753Y229448D03*
X270353Y229448D03*
X244953Y229448D03*
X422753Y102448D03*
X397353Y102448D03*
X371953Y102448D03*
X346553Y102448D03*
X321153Y102448D03*
X295753Y102448D03*
X270353Y102448D03*
X244953Y102448D03*
X422753Y204048D03*
X422753Y178648D03*
X514315Y454171D03*
X514315Y428771D03*
X514315Y403371D03*
X514315Y377971D03*
X514315Y352571D03*
X514315Y327171D03*
X514315Y301771D03*
X514315Y276371D03*
X641315Y454171D03*
X641315Y428771D03*
X641315Y403371D03*
X641315Y377971D03*
X641315Y352571D03*
X641315Y327171D03*
X641315Y301771D03*
X641315Y276371D03*
X539715Y454171D03*
X565115Y454171D03*
X232962Y506655D03*
X258362Y506655D03*
X283762Y506655D03*
X309162Y506655D03*
X334562Y506655D03*
X359962Y506655D03*
X385362Y506655D03*
X410762Y506655D03*
X232962Y633655D03*
X258362Y633655D03*
X283762Y633655D03*
X309162Y633655D03*
X334562Y633655D03*
X359962Y633655D03*
X385362Y633655D03*
X410762Y633655D03*
X232962Y532055D03*
X232962Y557455D03*
D11*
X420000Y55000D03*
X395000Y55000D03*
X370000Y55000D03*
X345000Y55000D03*
X320000Y55000D03*
X685000Y420000D03*
X685000Y395000D03*
X685000Y370000D03*
X685000Y345000D03*
X685000Y320000D03*
X320000Y685000D03*
X345000Y685000D03*
X370000Y685000D03*
X395000Y685000D03*
X420000Y685000D03*
D12*
X10000Y467540D02*
X10000Y452460D01*
X28960Y433000D02*
X44040Y433000D01*
X44040Y481000D02*
X28960Y481000D01*
D13*
X345000Y685000D02*
X347819Y687247D01*
X314543Y664436D02*
X283762Y633655D01*
X325008Y664436D02*
X347819Y687247D01*
X325008Y664436D02*
X314543Y664436D01*
X370000Y669093D02*
X370000Y685000D01*
X370000Y669093D02*
X334562Y633655D01*
X395000Y685000D02*
X397819Y687247D01*
X387255Y697811D01*
X361207Y697811D01*
X357564Y672207D02*
X351793Y666436D01*
X341943Y666436D01*
X309162Y633655D01*
X357564Y672207D02*
X357564Y694168D01*
X361207Y697811D01*
D14*
X410762Y506655D02*
X410000Y505893D01*
X410000Y490000D01*
X400000Y480000D01*
X306000Y480000D01*
X306000Y440862D01*
X306547Y440315D01*
X385362Y495362D02*
X385362Y506655D01*
X385362Y495362D02*
X378000Y488000D01*
X292000Y488000D01*
X281147Y477147D01*
X281147Y440315D01*
X283762Y493762D02*
X283762Y506655D01*
X283762Y493762D02*
X255747Y465747D01*
X255747Y440315D01*
X258362Y488362D02*
X258362Y506655D01*
X258362Y488362D02*
X230000Y460000D01*
X230000Y440662D01*
X230347Y440315D01*
X232962Y482962D02*
X232962Y506655D01*
X232962Y482962D02*
X204947Y454947D01*
X204947Y440315D01*
X234953Y239448D02*
X244953Y229448D01*
X234953Y239448D02*
X150553Y239448D01*
X128747Y261253D01*
X128747Y287915D01*
X270000Y229800D02*
X270353Y229448D01*
X270000Y229800D02*
X270000Y240000D01*
X260000Y250000D01*
X154000Y250000D01*
X154000Y287768D01*
X154147Y287915D01*
X179547Y287915D02*
X180000Y287462D01*
X180000Y260000D01*
X270000Y260000D01*
X282000Y248000D01*
X372000Y248000D01*
X372000Y229495D01*
X371953Y229448D01*
X204947Y267053D02*
X204947Y287915D01*
X204947Y267053D02*
X206000Y266000D01*
X274000Y266000D01*
X286000Y254000D01*
X398000Y254000D01*
X398000Y230095D01*
X397353Y229448D01*
X230347Y275653D02*
X230347Y287915D01*
X230347Y275653D02*
X234000Y272000D01*
X390000Y272000D02*
X422753Y239248D01*
X422753Y229448D01*
X390000Y272000D02*
X234000Y272000D01*
D13*
X649685Y395000D02*
X685000Y395000D01*
X649685Y395000D02*
X641315Y403371D01*
X668197Y370000D02*
X685000Y370000D01*
X650768Y352571D02*
X641315Y352571D01*
X650768Y352571D02*
X668197Y370000D01*
X670000Y320000D02*
X685000Y320000D01*
X670000Y320000D02*
X662830Y327171D01*
X641315Y327171D01*
X685000Y345000D02*
X706000Y357498D01*
X649908Y382564D02*
X645315Y377971D01*
X641315Y377971D01*
X649908Y382564D02*
X699793Y382564D01*
X706000Y376357D01*
X706000Y357498D01*
X371953Y102448D02*
X371953Y86663D01*
X395000Y55000D01*
X370000Y55000D02*
X370000Y30000D01*
X333000Y30000D01*
X333000Y78000D01*
X325500Y85500D01*
X325000Y86000D01*
X321153Y89848D01*
X321153Y102448D01*
X295753Y102448D02*
X295753Y98751D01*
X320000Y67775D02*
X320000Y55000D01*
X320000Y67775D02*
X295753Y98751D01*
X345000Y100895D02*
X346553Y102448D01*
X345000Y100895D02*
X345000Y55000D01*
X331947Y440315D02*
X330000Y442262D01*
X330000Y470000D01*
X400000Y470000D01*
X410000Y480000D01*
X440000Y510000D01*
X410000Y480000D02*
X570000Y480000D01*
X600000Y450000D01*
X600000Y330000D01*
X420000Y150000D01*
X270000Y150000D01*
X270000Y102800D02*
X270353Y102448D01*
X440000Y510000D02*
X440000Y570000D01*
X385362Y603655D02*
X385362Y633655D01*
X270000Y150000D02*
X270000Y102800D01*
X600000Y300821D02*
X600000Y330000D01*
X600000Y300821D02*
X640365Y300821D01*
X641315Y301771D01*
X440000Y570000D02*
X419017Y570000D01*
X385362Y603655D01*
X357347Y440315D02*
X360000Y437662D01*
X360000Y410000D01*
X82000Y410000D01*
D15*
X422753Y108753D02*
X422753Y102448D01*
X422753Y108753D02*
X554000Y240000D01*
X641315Y454171D02*
X641315Y520000D01*
X510000Y520000D01*
X457553Y102448D02*
X422753Y102448D01*
X214160Y205865D02*
X205865Y214160D01*
X90000Y214160D01*
X36500Y267660D01*
X554000Y240000D02*
X745840Y240000D01*
X745840Y439285D01*
X665125Y520000D01*
X641315Y520000D01*
X510000Y520000D02*
X510000Y727000D01*
X415125Y-10000D02*
X214160Y-10000D01*
X214160Y205865D01*
X457553Y102448D02*
X457553Y32427D01*
X415125Y-10000D01*
X510000Y727000D02*
X278239Y727000D01*
X232962Y681724D02*
X232962Y633655D01*
X232962Y681724D02*
X278239Y727000D01*
D13*
X59000Y433000D02*
X82000Y410000D01*
D15*
X36500Y433000D02*
X36500Y267660D01*
D13*
X36500Y433000D02*
X59000Y433000D01*
D15*
X410762Y633655D02*
X435000Y657893D01*
X435000Y658000D01*
X258362Y633655D02*
X257000Y635017D01*
X257000Y651000D01*
X258362Y649638D01*
X258362Y633655D01*
X258362Y611362D01*
X258000Y611000D01*
X641315Y276371D02*
X661630Y276371D01*
X662000Y276000D01*
X641315Y428771D02*
X624230Y428771D01*
X623000Y430000D01*
X641315Y428771D02*
X660771Y428771D01*
X661000Y429000D01*
X397353Y120353D02*
X397353Y102448D01*
X397353Y120353D02*
X399000Y122000D01*
X397353Y102448D02*
X397353Y80648D01*
X398000Y80000D01*
X244953Y102448D02*
X244953Y123953D01*
X245000Y124000D01*
X244953Y102448D02*
X245000Y102400D01*
X245000Y76000D01*
D13*
X382747Y403747D02*
X382747Y440315D01*
X382747Y403747D02*
X378000Y399000D01*
X270000Y399000D01*
D15*
X36500Y481000D02*
X13000Y481000D01*
X10000Y484000D01*
X10000Y460000D01*
X10000Y438000D01*
X9000Y437000D01*
X36500Y481000D02*
X66000Y481000D01*
D14*
X483630Y276371D02*
X514315Y276371D01*
X483630Y276371D02*
X430000Y330000D01*
X382000Y330000D01*
X382000Y288662D01*
X382747Y287915D01*
X468230Y301771D02*
X514315Y301771D01*
X468230Y301771D02*
X430000Y340000D01*
X358000Y340000D01*
X357347Y339347D01*
X357347Y287915D01*
X423371Y403371D02*
X514315Y403371D01*
X423371Y403371D02*
X390000Y370000D01*
X332000Y370000D01*
X331947Y369947D01*
X331947Y287915D01*
X438771Y428771D02*
X514315Y428771D01*
X438771Y428771D02*
X390000Y380000D01*
X306000Y380000D01*
X306000Y288462D01*
X306547Y287915D01*
X510144Y450000D02*
X514315Y454171D01*
X510144Y450000D02*
X450000Y450000D01*
X390000Y390000D01*
X280000Y390000D01*
X280000Y289062D01*
X281147Y287915D01*
D13*
X420000Y670000D02*
X420000Y685000D01*
X420000Y670000D02*
X400000Y650000D01*
X370000Y650000D01*
X359962Y639962D01*
X359962Y633655D01*
M02*
