G04 EAGLE Gerber RS-274X export*
G75*
%MOMM*%
%FSLAX44Y44*%
%LPD*%
%IN*%
%IPPOS*%
%AMOC8*
5,1,8,0,0,1.08239X$1,22.5*%
G01*
G04 Define Apertures*
%ADD10C,0.254000*%
D10*
X-30000Y220000D02*
X-29924Y218257D01*
X-29696Y216527D01*
X-29319Y214824D01*
X-28794Y213160D01*
X-28126Y211548D01*
X-27321Y210000D01*
X-26383Y208528D01*
X-25321Y207144D01*
X-24142Y205858D01*
X-22856Y204679D01*
X-21472Y203617D01*
X-20000Y202680D01*
X-18452Y201874D01*
X-16840Y201206D01*
X-15176Y200681D01*
X-13473Y200304D01*
X-11743Y200076D01*
X-10000Y200000D01*
X180000Y200000D01*
X181743Y199924D01*
X183473Y199696D01*
X185176Y199319D01*
X186840Y198794D01*
X188452Y198126D01*
X190000Y197321D01*
X191472Y196383D01*
X192856Y195321D01*
X194142Y194142D01*
X195321Y192856D01*
X196383Y191472D01*
X197321Y190000D01*
X198126Y188452D01*
X198794Y186840D01*
X199319Y185176D01*
X199696Y183473D01*
X199924Y181743D01*
X200000Y180000D01*
X200000Y-10000D01*
X200076Y-11743D01*
X200304Y-13473D01*
X200681Y-15176D01*
X201206Y-16840D01*
X201874Y-18452D01*
X202680Y-20000D01*
X203617Y-21472D01*
X204679Y-22856D01*
X205858Y-24142D01*
X207144Y-25321D01*
X208528Y-26383D01*
X210000Y-27321D01*
X211548Y-28126D01*
X213160Y-28794D01*
X214824Y-29319D01*
X216527Y-29696D01*
X218257Y-29924D01*
X220000Y-30000D01*
X520000Y-30000D01*
X521743Y-29924D01*
X523473Y-29696D01*
X525176Y-29319D01*
X526840Y-28794D01*
X528452Y-28126D01*
X530000Y-27321D01*
X531472Y-26383D01*
X532856Y-25321D01*
X534142Y-24142D01*
X535321Y-22856D01*
X536383Y-21472D01*
X537321Y-20000D01*
X538126Y-18452D01*
X538794Y-16840D01*
X539319Y-15176D01*
X539696Y-13473D01*
X539924Y-11743D01*
X540000Y-10000D01*
X540000Y180000D01*
X540076Y181743D01*
X540304Y183473D01*
X540681Y185176D01*
X541206Y186840D01*
X541874Y188452D01*
X542680Y190000D01*
X543617Y191472D01*
X544679Y192856D01*
X545858Y194142D01*
X547144Y195321D01*
X548528Y196383D01*
X550000Y197321D01*
X551548Y198126D01*
X553160Y198794D01*
X554824Y199319D01*
X556527Y199696D01*
X558257Y199924D01*
X560000Y200000D01*
X750000Y200000D01*
X751743Y200076D01*
X753473Y200304D01*
X755176Y200681D01*
X756840Y201206D01*
X758452Y201874D01*
X760000Y202680D01*
X761472Y203617D01*
X762856Y204679D01*
X764142Y205858D01*
X765321Y207144D01*
X766383Y208528D01*
X767321Y210000D01*
X768126Y211548D01*
X768794Y213160D01*
X769319Y214824D01*
X769696Y216527D01*
X769924Y218257D01*
X770000Y220000D01*
X770000Y520000D01*
X769924Y521743D01*
X769696Y523473D01*
X769319Y525176D01*
X768794Y526840D01*
X768126Y528452D01*
X767321Y530000D01*
X766383Y531472D01*
X765321Y532856D01*
X764142Y534142D01*
X762856Y535321D01*
X761472Y536383D01*
X760000Y537321D01*
X758452Y538126D01*
X756840Y538794D01*
X755176Y539319D01*
X753473Y539696D01*
X751743Y539924D01*
X750000Y540000D01*
X560000Y540000D01*
X558257Y540076D01*
X556527Y540304D01*
X554824Y540681D01*
X553160Y541206D01*
X551548Y541874D01*
X550000Y542680D01*
X548528Y543617D01*
X547144Y544679D01*
X545858Y545858D01*
X544679Y547144D01*
X543617Y548528D01*
X542680Y550000D01*
X541874Y551548D01*
X541206Y553160D01*
X540681Y554824D01*
X540304Y556527D01*
X540076Y558257D01*
X540000Y560000D01*
X540000Y750000D01*
X539924Y751743D01*
X539696Y753473D01*
X539319Y755176D01*
X538794Y756840D01*
X538126Y758452D01*
X537321Y760000D01*
X536383Y761472D01*
X535321Y762856D01*
X534142Y764142D01*
X532856Y765321D01*
X531472Y766383D01*
X530000Y767321D01*
X528452Y768126D01*
X526840Y768794D01*
X525176Y769319D01*
X523473Y769696D01*
X521743Y769924D01*
X520000Y770000D01*
X220000Y770000D01*
X218257Y769924D01*
X216527Y769696D01*
X214824Y769319D01*
X213160Y768794D01*
X211548Y768126D01*
X210000Y767321D01*
X208528Y766383D01*
X207144Y765321D01*
X205858Y764142D01*
X204679Y762856D01*
X203617Y761472D01*
X202680Y760000D01*
X201874Y758452D01*
X201206Y756840D01*
X200681Y755176D01*
X200304Y753473D01*
X200076Y751743D01*
X200000Y750000D01*
X200000Y560000D01*
X199924Y558257D01*
X199696Y556527D01*
X199319Y554824D01*
X198794Y553160D01*
X198126Y551548D01*
X197321Y550000D01*
X196383Y548528D01*
X195321Y547144D01*
X194142Y545858D01*
X192856Y544679D01*
X191472Y543617D01*
X190000Y542680D01*
X188452Y541874D01*
X186840Y541206D01*
X185176Y540681D01*
X183473Y540304D01*
X181743Y540076D01*
X180000Y540000D01*
X-10000Y540000D01*
X-11743Y539924D01*
X-13473Y539696D01*
X-15176Y539319D01*
X-16840Y538794D01*
X-18452Y538126D01*
X-20000Y537321D01*
X-21472Y536383D01*
X-22856Y535321D01*
X-24142Y534142D01*
X-25321Y532856D01*
X-26383Y531472D01*
X-27321Y530000D01*
X-28126Y528452D01*
X-28794Y526840D01*
X-29319Y525176D01*
X-29696Y523473D01*
X-29924Y521743D01*
X-30000Y520000D01*
X-30000Y220000D01*
X29000Y433000D02*
X29019Y432564D01*
X29076Y432132D01*
X29170Y431706D01*
X29302Y431290D01*
X29468Y430887D01*
X29670Y430500D01*
X29904Y430132D01*
X30170Y429786D01*
X30464Y429464D01*
X30786Y429170D01*
X31132Y428904D01*
X31500Y428670D01*
X31887Y428468D01*
X32290Y428302D01*
X32706Y428170D01*
X33132Y428076D01*
X33564Y428019D01*
X34000Y428000D01*
X39000Y428000D01*
X39436Y428019D01*
X39868Y428076D01*
X40294Y428170D01*
X40710Y428302D01*
X41113Y428468D01*
X41500Y428670D01*
X41868Y428904D01*
X42214Y429170D01*
X42536Y429464D01*
X42830Y429786D01*
X43096Y430132D01*
X43330Y430500D01*
X43532Y430887D01*
X43698Y431290D01*
X43830Y431706D01*
X43924Y432132D01*
X43981Y432564D01*
X44000Y433000D01*
X43981Y433436D01*
X43924Y433868D01*
X43830Y434294D01*
X43698Y434710D01*
X43532Y435113D01*
X43330Y435500D01*
X43096Y435868D01*
X42830Y436214D01*
X42536Y436536D01*
X42214Y436830D01*
X41868Y437096D01*
X41500Y437330D01*
X41113Y437532D01*
X40710Y437698D01*
X40294Y437830D01*
X39868Y437924D01*
X39436Y437981D01*
X39000Y438000D01*
X34000Y438000D01*
X33564Y437981D01*
X33132Y437924D01*
X32706Y437830D01*
X32290Y437698D01*
X31887Y437532D01*
X31500Y437330D01*
X31132Y437096D01*
X30786Y436830D01*
X30464Y436536D01*
X30170Y436214D01*
X29904Y435868D01*
X29670Y435500D01*
X29468Y435113D01*
X29302Y434710D01*
X29170Y434294D01*
X29076Y433868D01*
X29019Y433436D01*
X29000Y433000D01*
X5000Y457500D02*
X5019Y457064D01*
X5076Y456632D01*
X5170Y456206D01*
X5302Y455790D01*
X5468Y455387D01*
X5670Y455000D01*
X5904Y454632D01*
X6170Y454286D01*
X6464Y453964D01*
X6786Y453670D01*
X7132Y453404D01*
X7500Y453170D01*
X7887Y452968D01*
X8290Y452802D01*
X8706Y452670D01*
X9132Y452576D01*
X9564Y452519D01*
X10000Y452500D01*
X10436Y452519D01*
X10868Y452576D01*
X11294Y452670D01*
X11710Y452802D01*
X12113Y452968D01*
X12500Y453170D01*
X12868Y453404D01*
X13214Y453670D01*
X13536Y453964D01*
X13830Y454286D01*
X14096Y454632D01*
X14330Y455000D01*
X14532Y455387D01*
X14698Y455790D01*
X14830Y456206D01*
X14924Y456632D01*
X14981Y457064D01*
X15000Y457500D01*
X15000Y462500D01*
X14981Y462936D01*
X14924Y463368D01*
X14830Y463794D01*
X14698Y464210D01*
X14532Y464613D01*
X14330Y465000D01*
X14096Y465368D01*
X13830Y465714D01*
X13536Y466036D01*
X13214Y466330D01*
X12868Y466596D01*
X12500Y466830D01*
X12113Y467032D01*
X11710Y467198D01*
X11294Y467330D01*
X10868Y467424D01*
X10436Y467481D01*
X10000Y467500D01*
X9564Y467481D01*
X9132Y467424D01*
X8706Y467330D01*
X8290Y467198D01*
X7887Y467032D01*
X7500Y466830D01*
X7132Y466596D01*
X6786Y466330D01*
X6464Y466036D01*
X6170Y465714D01*
X5904Y465368D01*
X5670Y465000D01*
X5468Y464613D01*
X5302Y464210D01*
X5170Y463794D01*
X5076Y463368D01*
X5019Y462936D01*
X5000Y462500D01*
X5000Y457500D01*
X29000Y481000D02*
X29019Y480564D01*
X29076Y480132D01*
X29170Y479706D01*
X29302Y479290D01*
X29468Y478887D01*
X29670Y478500D01*
X29904Y478132D01*
X30170Y477786D01*
X30464Y477464D01*
X30786Y477170D01*
X31132Y476904D01*
X31500Y476670D01*
X31887Y476468D01*
X32290Y476302D01*
X32706Y476170D01*
X33132Y476076D01*
X33564Y476019D01*
X34000Y476000D01*
X39000Y476000D01*
X39436Y476019D01*
X39868Y476076D01*
X40294Y476170D01*
X40710Y476302D01*
X41113Y476468D01*
X41500Y476670D01*
X41868Y476904D01*
X42214Y477170D01*
X42536Y477464D01*
X42830Y477786D01*
X43096Y478132D01*
X43330Y478500D01*
X43532Y478887D01*
X43698Y479290D01*
X43830Y479706D01*
X43924Y480132D01*
X43981Y480564D01*
X44000Y481000D01*
X43981Y481436D01*
X43924Y481868D01*
X43830Y482294D01*
X43698Y482710D01*
X43532Y483113D01*
X43330Y483500D01*
X43096Y483868D01*
X42830Y484214D01*
X42536Y484536D01*
X42214Y484830D01*
X41868Y485096D01*
X41500Y485330D01*
X41113Y485532D01*
X40710Y485698D01*
X40294Y485830D01*
X39868Y485924D01*
X39436Y485981D01*
X39000Y486000D01*
X34000Y486000D01*
X33564Y485981D01*
X33132Y485924D01*
X32706Y485830D01*
X32290Y485698D01*
X31887Y485532D01*
X31500Y485330D01*
X31132Y485096D01*
X30786Y484830D01*
X30464Y484536D01*
X30170Y484214D01*
X29904Y483868D01*
X29670Y483500D01*
X29468Y483113D01*
X29302Y482710D01*
X29170Y482294D01*
X29076Y481868D01*
X29019Y481436D01*
X29000Y481000D01*
M02*
